<svg width="15" height="8" viewBox="0 0 15 8" fill="none" xmlns="http://www.w3.org/2000/svg">
<path d="M0.28517 0.264422C0.194775 0.347816 0.123057 0.446883 0.0741225 0.55595C0.0251884 0.665017 8.26624e-08 0.781942 8.12542e-08 0.900026C7.98461e-08 1.01811 0.0251884 1.13504 0.0741225 1.2441C0.123057 1.35317 0.194775 1.45224 0.28517 1.53563L6.73816 7.50384C6.81 7.57041 6.89533 7.62324 6.98927 7.65928C7.08321 7.69532 7.18391 7.71387 7.28561 7.71387C7.38731 7.71387 7.48802 7.69532 7.58195 7.65928C7.67589 7.62324 7.76123 7.57041 7.83307 7.50384L14.2861 1.53563C14.6666 1.18371 14.6666 0.616338 14.2861 0.264423C13.9056 -0.0874933 13.2921 -0.0874933 12.9116 0.264423L7.28173 5.46416L1.65187 0.257242C1.27913 -0.087492 0.657905 -0.0874934 0.28517 0.264422Z" fill="#7DAA7D"/>
</svg>
