<svg width="11" height="14" viewBox="0 0 11 14" fill="none" xmlns="http://www.w3.org/2000/svg">
<path d="M1.375 14C0.996875 14 0.673292 13.863 0.40425 13.5891C0.13475 13.3147 0 12.985 0 12.6V1.4C0 1.015 0.13475 0.6853 0.40425 0.4109C0.673292 0.136967 0.996875 0 1.375 0H9.625C10.0031 0 10.3269 0.136967 10.5964 0.4109C10.8655 0.6853 11 1.015 11 1.4V12.6C11 12.985 10.8655 13.3147 10.5964 13.5891C10.3269 13.863 10.0031 14 9.625 14H1.375ZM1.375 12.6H9.625V1.4H8.25V6.3L6.53125 5.25L4.8125 6.3V1.4H1.375V12.6Z" fill="white"/>
</svg>
