<svg width="34" height="31" viewBox="0 0 34 31" fill="none" xmlns="http://www.w3.org/2000/svg">
<path d="M15.5978 27.6847H5.02173C4.22032 27.6847 3.45173 27.3663 2.88504 26.7997C2.31836 26.233 2 25.4644 2 24.663V5.02173C2 3.35978 3.35978 2 5.02173 2H10.9594C11.4571 2.00257 11.9465 2.12805 12.384 2.36527C12.8216 2.60248 13.1937 2.94411 13.4675 3.35978L14.7064 5.17282C14.9801 5.58849 15.3523 5.93011 15.7898 6.16733C16.2274 6.40455 16.7167 6.53002 17.2144 6.5326H29.1956C29.997 6.5326 30.7656 6.85096 31.3323 7.41764C31.8989 7.98432 32.2173 8.75291 32.2173 9.55433V11.8206" stroke="#664B7F" stroke-width="3" stroke-linecap="round" stroke-linejoin="round"/>
<path d="M31.1453 18.1668C30.6305 17.6545 29.9753 17.3065 29.2626 17.1666C28.5499 17.0268 27.8117 17.1014 27.1415 17.3812C26.6882 17.5625 26.2803 17.8344 25.9328 18.1819L25.4191 18.6956L24.8903 18.1819C24.3772 17.6671 23.7228 17.3162 23.01 17.1736C22.2972 17.0311 21.5582 17.1033 20.8865 17.3812C20.4332 17.5625 20.0404 17.8344 19.6929 18.1819C18.2576 19.6021 18.1821 22.0044 19.9951 23.8326L25.4191 29.1961L30.8582 23.8326C32.6713 22.0044 32.5806 19.6021 31.1453 18.1819V18.1668Z" stroke="#664B7F" stroke-width="3" stroke-linecap="round" stroke-linejoin="round"/>
</svg>
