<svg width="29" height="29" viewBox="0 0 29 29" fill="none" xmlns="http://www.w3.org/2000/svg">
<path d="M5.39784 3.78269H23.6239L14.4926 14.8109L5.39784 3.78269ZM0.385671 3.09999C4.06734 7.63379 10.8657 16.0362 10.8657 16.0362V26.5392C10.8657 27.502 11.6858 28.2897 12.6883 28.2897H16.3335C17.3359 28.2897 18.1561 27.502 18.1561 26.5392V16.0362C18.1561 16.0362 24.9362 7.63379 28.6178 3.09999C28.8267 2.84157 28.9559 2.532 28.9905 2.20654C29.0252 1.88108 28.9641 1.55281 28.814 1.25911C28.664 0.965402 28.431 0.718066 28.1418 0.545262C27.8526 0.372458 27.5186 0.281131 27.178 0.28168H1.82553C0.312766 0.28168 -0.543859 1.94466 0.385671 3.09999Z" fill="white"/>
</svg>
