<svg width="17" height="32" viewBox="0 0 17 32" fill="none" xmlns="http://www.w3.org/2000/svg">
<path d="M16.4164 31.3737C16.2326 31.5723 16.0143 31.7298 15.7739 31.8372C15.5336 31.9447 15.2759 32 15.0157 32C14.7555 32 14.4978 31.9447 14.2574 31.8372C14.0171 31.7298 13.7988 31.5723 13.615 31.3737L0.46285 17.2025C0.316129 17.0447 0.199726 16.8573 0.120304 16.651C0.0408826 16.4447 1.37922e-06 16.2236 1.39874e-06 16.0002C1.41827e-06 15.7769 0.0408826 15.5557 0.120304 15.3494C0.199726 15.1431 0.316129 14.9557 0.46285 14.798L13.615 0.626706C14.3905 -0.208903 15.6409 -0.208903 16.4164 0.626707C17.1919 1.46232 17.1919 2.80953 16.4164 3.64514L4.95769 16.0088L16.4322 28.3724C17.1919 29.1909 17.1919 30.5552 16.4164 31.3737Z" fill="#7DAA7D"/>
</svg>
