<svg width="17" height="32" viewBox="0 0 17 32" fill="none" xmlns="http://www.w3.org/2000/svg">
<path d="M0.583633 31.3737C0.767406 31.5723 0.985722 31.7298 1.22607 31.8372C1.46642 31.9447 1.72409 32 1.98432 32C2.24454 32 2.50221 31.9447 2.74256 31.8372C2.98291 31.7298 3.20122 31.5723 3.385 31.3737L16.5372 17.2025C16.6839 17.0447 16.8003 16.8573 16.8797 16.651C16.9591 16.4447 17 16.2236 17 16.0002C17 15.7769 16.9591 15.5557 16.8797 15.3494C16.8003 15.1431 16.6839 14.9557 16.5371 14.798L3.38499 0.626706C2.60948 -0.208903 1.35915 -0.208903 0.583631 0.626707C-0.191888 1.46232 -0.191888 2.80953 0.583631 3.64514L12.0423 16.0088L0.56781 28.3724C-0.191881 29.1909 -0.191885 30.5552 0.583633 31.3737Z" fill="#7DAA7D"/>
</svg>
