<svg width="24" height="21" viewBox="0 0 24 21" fill="none" xmlns="http://www.w3.org/2000/svg">
<path d="M18.5455 12.3246H15.2727V10.0838H18.5455H20.7273H24V12.3246H20.7273H18.5455ZM10.9091 20.1676L7.44545 16.9744C6.13636 15.7606 5.01382 14.6775 4.07782 13.7252C3.14109 12.7728 2.36836 11.8765 1.75964 11.0362C1.15018 10.1958 0.704727 9.38353 0.423273 8.59924C0.141091 7.81494 0 6.9933 0 6.13431C0 4.37898 0.572727 2.91758 1.71818 1.7501C2.86364 0.583366 4.29091 0 6 0C6.94545 0 7.84546 0.200555 8.7 0.601667C9.55455 1.00352 10.2909 1.57793 10.9091 2.32488C11.5273 1.57793 12.2636 1.00352 13.1182 0.601667C13.9727 0.200555 14.8727 0 15.8182 0C17.3636 0 18.6589 0.480661 19.704 1.44198C20.7498 2.40405 21.4 3.52933 21.6545 4.81781C21.3273 4.6871 21 4.58888 20.6727 4.52314C20.3455 4.45816 20.0273 4.42567 19.7182 4.42567C17.8818 4.42567 16.3182 5.08373 15.0273 6.39985C13.7364 7.71672 13.0909 9.31818 13.0909 11.2042C13.0909 12.1753 13.2818 13.0947 13.6636 13.9627C14.0455 14.8314 14.5818 15.5739 15.2727 16.1901C14.9273 16.5076 14.4771 16.9139 13.9222 17.4091C13.368 17.9036 12.8909 18.3376 12.4909 18.711L10.9091 20.1676Z" fill="#664B7F"/>
</svg>
