<svg width="31" height="31" viewBox="0 0 31 31" fill="none" xmlns="http://www.w3.org/2000/svg">
<path d="M22.0515 13.4295C22.7304 13.4313 23.403 13.2985 24.0302 13.0386C24.6574 12.7788 25.2269 12.3971 25.7056 11.9156L30.6785 6.94594C31.0718 6.55263 31.108 5.91261 30.7334 5.49992C30.6394 5.39624 30.5252 5.31274 30.398 5.2545C30.2707 5.19626 30.1329 5.16448 29.993 5.1611C29.853 5.15771 29.7139 5.1828 29.5839 5.23482C29.454 5.28685 29.3359 5.36474 29.237 5.46376L24.8047 9.89287C24.6558 10.0415 24.4541 10.125 24.2438 10.125C24.0334 10.125 23.8317 10.0415 23.6829 9.89287C23.3735 9.58417 23.3903 9.06233 23.699 8.75363L28.112 4.34065C28.2109 4.24173 28.2887 4.12375 28.3407 3.99386C28.3926 3.86397 28.4177 3.72489 28.4143 3.58503C28.4109 3.44518 28.3792 3.30747 28.321 3.18024C28.2628 3.05302 28.1794 2.93894 28.0758 2.84491C27.8888 2.67529 27.645 2.58195 27.3925 2.58334C27.1064 2.58354 26.832 2.69737 26.6298 2.8998L22.2207 7.30825C22.0719 7.45689 21.8701 7.54039 21.6598 7.54039C21.4494 7.54039 21.2477 7.45689 21.0989 7.30825C20.7902 6.99955 20.8063 6.47771 21.115 6.169L25.528 1.75732C25.6269 1.6584 25.7047 1.54042 25.7567 1.41053C25.8086 1.28065 25.8337 1.14156 25.8303 1.0017C25.8269 0.861848 25.7952 0.724136 25.737 0.596913C25.6788 0.469691 25.5954 0.355607 25.4918 0.261577C25.3048 0.0919571 25.061 -0.00137405 24.8085 1.52911e-05C24.5224 0.000353987 24.2481 0.114161 24.0458 0.316473L19.0761 5.28615C18.5946 5.76495 18.2129 6.33452 17.9531 6.96187C17.6932 7.58922 17.5604 8.26188 17.5623 8.94092V9.47244C17.5624 9.60833 17.5357 9.74291 17.4837 9.86847C17.4318 9.99403 17.3555 10.1081 17.2594 10.2042L14.9596 12.5046C14.9356 12.5286 14.9071 12.5477 14.8758 12.5607C14.8444 12.5737 14.8108 12.5804 14.7768 12.5804C14.7429 12.5804 14.7093 12.5737 14.6779 12.5607C14.6465 12.5477 14.618 12.5286 14.5941 12.5046L3.40307 1.31299C3.20992 1.11962 2.94804 1.01065 2.67473 1.00993C2.40142 1.0092 2.13896 1.11678 1.94478 1.30912C0.966348 2.27851 0.44387 3.64703 0.44387 5.26613C0.437411 7.93988 1.84274 11.014 4.11155 13.2796L9.63019 18.7983C10.4146 19.581 11.4774 20.0207 12.5855 20.0208C12.9388 20.021 13.2906 19.9758 13.6324 19.8865C13.7182 19.864 13.8066 19.8525 13.8953 19.8523C14.1547 19.8523 14.4045 19.9503 14.5947 20.1267L15.3303 20.8061C15.52 21 15.6266 21.2602 15.6274 21.5314V21.8892C15.6255 22.7026 15.9452 23.4837 16.5167 24.0624L22.3324 29.9763L22.3382 29.9828C22.9837 30.6282 23.8592 30.9907 24.772 30.9907C25.6848 30.9906 26.5601 30.6279 27.2055 29.9825C27.8509 29.337 28.2135 28.4615 28.2134 27.5487C28.2134 26.6359 27.8507 25.7605 27.2052 25.1151L18.4878 16.3977C18.4638 16.3737 18.4447 16.3452 18.4317 16.3139C18.4187 16.2825 18.412 16.2489 18.412 16.2149C18.412 16.181 18.4187 16.1474 18.4317 16.116C18.4447 16.0846 18.4638 16.0561 18.4878 16.0322L20.7876 13.7323C20.8836 13.6363 20.9975 13.5601 21.123 13.5081C21.2484 13.4562 21.3829 13.4294 21.5187 13.4295H22.0515Z" fill="#565656"/>
<path d="M12.5892 22.0875C10.9348 22.0841 9.34846 21.4286 8.1743 20.263L7.27917 19.3679C7.18232 19.2713 7.05109 19.217 6.91428 19.217C6.77747 19.217 6.64624 19.2713 6.54938 19.3679L1.05981 24.8291C0.081374 25.8075 -0.268021 27.2477 0.216353 28.6582C0.243463 28.7377 0.275604 28.8153 0.312582 28.8907C0.964227 30.225 2.22877 31 3.61214 31C4.08788 31.0012 4.55913 30.9079 4.99858 30.7257C5.43803 30.5434 5.83694 30.2758 6.17222 29.9383L13.4934 22.5822C13.5242 22.5508 13.5478 22.513 13.5625 22.4715C13.5772 22.43 13.5827 22.3858 13.5786 22.342V22.3252C13.5758 22.2849 13.5648 22.2457 13.5463 22.2097C13.5278 22.1738 13.5023 22.142 13.4712 22.1163C13.4401 22.0905 13.4042 22.0713 13.3655 22.0598C13.3268 22.0483 13.2861 22.0448 13.246 22.0494C13.0279 22.0736 12.8087 22.0863 12.5892 22.0875Z" fill="#565656"/>
</svg>
