<svg width="44" height="44" viewBox="0 0 44 44" fill="none" xmlns="http://www.w3.org/2000/svg">
<path d="M23.0526 39.8947H3.26316C2.92815 39.8947 2.60686 39.7617 2.36997 39.5248C2.13308 39.2879 2 38.9666 2 38.6316V3.26316C2 2.92815 2.13308 2.60686 2.36997 2.36997C2.60686 2.13308 2.92815 2 3.26316 2H38.6316C38.9666 2 39.2879 2.13308 39.5248 2.36997C39.7617 2.60686 39.8947 2.92815 39.8947 3.26316V23.0526" stroke="#8A8A8A" stroke-width="3" stroke-linecap="round" stroke-linejoin="round"/>
<path d="M2 29.3683L16.7368 23.0525L28.3158 28.3157M29.3684 35.6841H35.6842M42 35.6841H35.6842M35.6842 35.6841V29.3683M35.6842 35.6841V41.9999M29.3684 16.7367C28.2517 16.7367 27.1808 16.2931 26.3911 15.5035C25.6015 14.7139 25.1579 13.6429 25.1579 12.5262C25.1579 11.4095 25.6015 10.3385 26.3911 9.54891C27.1808 8.75928 28.2517 8.31567 29.3684 8.31567C30.4851 8.31567 31.5561 8.75928 32.3457 9.54891C33.1353 10.3385 33.5789 11.4095 33.5789 12.5262C33.5789 13.6429 33.1353 14.7139 32.3457 15.5035C31.5561 16.2931 30.4851 16.7367 29.3684 16.7367V16.7367Z" stroke="#8A8A8A" stroke-width="3" stroke-linecap="round" stroke-linejoin="round"/>
</svg>
