<svg width="29" height="37" viewBox="0 0 29 37" fill="none" xmlns="http://www.w3.org/2000/svg">
<path d="M14.5 18.2857C15.4969 18.2857 16.3506 17.9355 17.0611 17.2351C17.7704 16.5359 18.125 15.695 18.125 14.7123C18.125 13.7296 17.7704 12.888 17.0611 12.1876C16.3506 11.4884 15.4969 11.1388 14.5 11.1388C13.5031 11.1388 12.65 11.4884 11.9408 12.1876C11.2303 12.888 10.875 13.7296 10.875 14.7123C10.875 15.695 11.2303 16.5359 11.9408 17.2351C12.65 17.9355 13.5031 18.2857 14.5 18.2857ZM14.5 31.4181C18.1854 28.0829 20.9193 25.0526 22.7016 22.3273C24.4839 19.6031 25.375 17.1839 25.375 15.0696C25.375 11.8237 24.325 9.1657 22.2249 7.09549C20.126 5.02647 17.551 3.99196 14.5 3.99196C11.449 3.99196 8.8734 5.02647 6.77331 7.09549C4.67444 9.1657 3.625 11.8237 3.625 15.0696C3.625 17.1839 4.51615 19.6031 6.29844 22.3273C8.08073 25.0526 10.8146 28.0829 14.5 31.4181ZM14.5 36.1529C9.63646 32.0732 6.00421 28.2836 3.60325 24.784C1.20108 21.2856 0 18.0475 0 15.0696C0 10.6028 1.45785 7.04427 4.37356 4.39397C7.28806 1.74367 10.6635 0.418518 14.5 0.418518C18.3365 0.418518 21.7119 1.74367 24.6264 4.39397C27.5421 7.04427 29 10.6028 29 15.0696C29 18.0475 27.7995 21.2856 25.3986 24.784C22.9964 28.2836 19.3635 32.0732 14.5 36.1529Z" fill="white"/>
</svg>
