<svg width="18" height="18" viewBox="0 0 18 18" fill="none" xmlns="http://www.w3.org/2000/svg">
<path d="M0.599007 0.0235738L17.6886 5.70668C17.777 5.73593 17.8543 5.79161 17.91 5.86617C17.9657 5.94073 17.997 6.03056 17.9998 6.12349C18.0026 6.21642 17.9766 6.30796 17.9255 6.38569C17.8744 6.46343 17.8006 6.5236 17.714 6.55806L9.77766 9.72512L5.75632 17.7493C5.7154 17.831 5.65069 17.8985 5.57068 17.9429C5.49067 17.9873 5.39908 18.0065 5.30792 17.9981C5.21676 17.9896 5.13027 17.9539 5.0598 17.8956C4.98933 17.8373 4.93815 17.7591 4.91298 17.6713L0.0173896 0.577559C-0.0052875 0.498147 -0.00579465 0.414063 0.0159227 0.334384C0.0376401 0.254705 0.0807571 0.182457 0.14062 0.125438C0.200483 0.0684193 0.274818 0.0287956 0.355601 0.0108437C0.436384 -0.00710823 0.520548 -0.00270659 0.599007 0.0235738Z" fill="#664B7F"/>
</svg>
