<svg width="10" height="12" viewBox="0 0 10 12" fill="none" xmlns="http://www.w3.org/2000/svg">
<path d="M4.82235 5.57432C5.13912 5.57432 5.41039 5.46507 5.63615 5.24655C5.86154 5.02841 5.97423 4.76605 5.97423 4.45946C5.97423 4.15287 5.86154 3.89032 5.63615 3.67181C5.41039 3.45367 5.13912 3.34459 4.82235 3.34459C4.50559 3.34459 4.23451 3.45367 4.00913 3.67181C3.78336 3.89032 3.67048 4.15287 3.67048 4.45946C3.67048 4.76605 3.78336 5.02841 4.00913 5.24655C4.23451 5.46507 4.50559 5.57432 4.82235 5.57432ZM4.82235 11.1486C3.27692 9.87584 2.12274 8.69353 1.35981 7.60171C0.596499 6.51025 0.214844 5.5 0.214844 4.57095C0.214844 3.17736 0.67809 2.06715 1.60458 1.24029C2.53069 0.413429 3.60328 0 4.82235 0C6.04142 0 7.11401 0.413429 8.04012 1.24029C8.96661 2.06715 9.42986 3.17736 9.42986 4.57095C9.42986 5.5 9.0484 6.51025 8.28547 7.60171C7.52216 8.69353 6.36779 9.87584 4.82235 11.1486Z" fill="white"/>
</svg>
