<svg width="15" height="18" viewBox="0 0 15 18" fill="none" xmlns="http://www.w3.org/2000/svg">
<path d="M7.02341 8.98971C7.50627 8.98971 7.91977 8.81764 8.26392 8.47349C8.60748 8.12993 8.77926 7.71672 8.77926 7.23386C8.77926 6.751 8.60748 6.3375 8.26392 5.99335C7.91977 5.64979 7.50627 5.47801 7.02341 5.47801C6.54055 5.47801 6.12734 5.64979 5.78378 5.99335C5.43963 6.3375 5.26756 6.751 5.26756 7.23386C5.26756 7.71672 5.43963 8.12993 5.78378 8.47349C6.12734 8.81764 6.54055 8.98971 7.02341 8.98971ZM7.02341 17.769C4.66764 15.7644 2.90828 13.9023 1.74532 12.1827C0.581772 10.4637 0 8.87265 0 7.40944C0 5.21463 0.706145 3.46609 2.11844 2.16383C3.53014 0.861578 5.16513 0.210449 7.02341 0.210449C8.88169 0.210449 10.5167 0.861578 11.9284 2.16383C13.3407 3.46609 14.0468 5.21463 14.0468 7.40944C14.0468 8.87265 13.4653 10.4637 12.3024 12.1827C11.1388 13.9023 9.37918 15.7644 7.02341 17.769Z" fill="#282828"/>
</svg>
