<svg width="18" height="18" viewBox="0 0 18 18" fill="none" xmlns="http://www.w3.org/2000/svg">
<path d="M10.9527 8.52065C11.0067 8.57286 11.0318 8.61594 11.0441 8.64841C11.0635 8.70173 11.075 8.76334 11.075 8.83705C11.075 8.91075 11.0635 8.97236 11.0441 9.02567C11.0318 9.05815 11.0067 9.10123 10.9527 9.15346L7.35265 12.6303C7.24874 12.7307 7.15067 12.7637 7.03013 12.7565C6.88426 12.7477 6.77726 12.7014 6.68713 12.62C6.58981 12.5028 6.55 12.3856 6.55 12.2531C6.55 12.1172 6.59095 12.0278 6.67235 11.9492L8.52235 10.1625L9.41245 9.30285H8.175H1C0.837478 9.30285 0.727701 9.25455 0.635976 9.16565L0.634723 9.16444C0.543586 9.07673 0.5 8.97888 0.5 8.83705C0.5 8.69519 0.543635 8.59667 0.635349 8.50809C0.726973 8.4196 0.836951 8.37126 1 8.37126H8.175H9.41245L8.52235 7.51161L6.67235 5.72488C6.56464 5.62086 6.525 5.51939 6.525 5.39689C6.525 5.27338 6.56492 5.17168 6.67235 5.06793L6.68017 5.06037L6.68766 5.05249C6.77304 4.96253 6.86957 4.91854 7.013 4.91854C7.16913 4.91854 7.2702 4.96415 7.35265 5.04378L10.9527 8.52065ZM9.63473 16.236L9.63597 16.2348C9.7277 16.1459 9.83748 16.0976 10 16.0976H16H16.5V15.5976V2.07649V1.57649H16H10C9.83748 1.57649 9.7277 1.52819 9.63597 1.43929L9.63472 1.43808C9.54359 1.35037 9.5 1.25252 9.5 1.11069C9.5 0.968832 9.54363 0.870309 9.63535 0.781732C9.72697 0.693241 9.83695 0.644897 10 0.644897H16C16.4219 0.644897 16.7679 0.784569 17.0656 1.07145C17.3621 1.35844 17.5 1.68468 17.5 2.07649V15.5976C17.5 15.9893 17.3622 16.3154 17.066 16.6023C16.7682 16.8894 16.422 17.0292 16 17.0292H10C9.83748 17.0292 9.7277 16.9809 9.63597 16.892L9.63472 16.8908C9.54359 16.8031 9.5 16.7052 9.5 16.5634C9.5 16.4216 9.54359 16.3237 9.63473 16.236Z" fill="white" stroke="white"/>
</svg>
