<svg width="135" height="33" viewBox="0 0 135 33" fill="none" xmlns="http://www.w3.org/2000/svg">
<path d="M48.355 19.0196V27.5682" stroke="#664B7F" stroke-width="2.7744" stroke-miterlimit="10" stroke-linecap="round"/>
<path d="M48.3548 25.2727C47.3713 26.5392 45.7322 27.4099 43.9291 27.4099C40.8967 27.4099 38.438 25.0353 38.438 22.1066C38.438 19.1779 40.8967 16.8033 43.9291 16.8033C45.7322 16.8033 47.3713 17.674 48.3548 18.9404" stroke="#664B7F" stroke-width="2.7744" stroke-miterlimit="10" stroke-linecap="round"/>
<path d="M55.5669 19.5737V27.5683" stroke="#664B7F" stroke-width="2.7744" stroke-miterlimit="10" stroke-linecap="round"/>
<path d="M55.5671 19.732C55.5671 18.1489 56.9604 16.8033 58.7635 16.8033C59.9109 16.8033 60.9763 17.3574 61.4681 18.2281" stroke="#664B7F" stroke-width="2.7744" stroke-miterlimit="10" stroke-linecap="round"/>
<path d="M85.2356 5.40515V24.7187" stroke="#664B7F" stroke-width="2.7744" stroke-miterlimit="10" stroke-linecap="round"/>
<path d="M85.2356 24.6395C85.2356 26.2226 86.6289 27.5682 88.4319 27.5682C89.5793 27.5682 90.6448 27.0141 91.1365 26.1434" stroke="#664B7F" stroke-width="2.7744" stroke-miterlimit="10" stroke-linecap="round"/>
<path d="M82.1211 12.4498H89.7431" stroke="#664B7F" stroke-width="2.7744" stroke-miterlimit="10" stroke-linecap="round"/>
<path d="M102.611 27.5682C105.643 27.5682 108.102 25.1938 108.102 22.2649C108.102 19.3359 105.643 16.9615 102.611 16.9615C99.5781 16.9615 97.1196 19.3359 97.1196 22.2649C97.1196 25.1938 99.5781 27.5682 102.611 27.5682Z" stroke="#664B7F" stroke-width="2.7744" stroke-miterlimit="10" stroke-linecap="round"/>
<path d="M77.6135 19.0988V27.5682" stroke="#664B7F" stroke-width="2.7744" stroke-miterlimit="10" stroke-linecap="round"/>
<path d="M77.6136 25.431C76.6301 26.6975 74.991 27.5682 73.1879 27.5682C70.1555 27.5682 67.6968 25.1935 67.6968 22.2649C67.6968 19.3362 70.1555 16.9615 73.1879 16.9615C74.991 16.9615 76.6301 17.8322 77.6136 19.0987" stroke="#664B7F" stroke-width="2.7744" stroke-miterlimit="10" stroke-linecap="round"/>
<path d="M133.344 13.1621V23.0563" stroke="#664B7F" stroke-width="2.7744" stroke-miterlimit="10" stroke-linecap="round"/>
<path d="M124.001 5.2467V23.0563V5.2467Z" stroke="#664B7F" stroke-width="2.7744" stroke-miterlimit="10" stroke-linecap="round" stroke-linejoin="round"/>
<path d="M114.74 5.2467V23.1355V5.2467Z" stroke="#664B7F" stroke-width="2.7744" stroke-miterlimit="10" stroke-linecap="round" stroke-linejoin="round"/>
<path d="M133.344 22.898C133.344 25.4309 131.295 27.4889 128.673 27.4889C126.05 27.4889 124.001 25.4309 124.001 22.9772" stroke="#664B7F" stroke-width="2.7744" stroke-miterlimit="10" stroke-linecap="round"/>
<path d="M124.001 22.8188C124.001 25.3518 121.952 27.4098 119.33 27.4098C116.707 27.4098 114.658 25.3518 114.658 22.898" stroke="#664B7F" stroke-width="2.7744" stroke-miterlimit="10" stroke-linecap="round"/>
<path d="M133.344 8.33378C133.706 8.33378 134 8.05028 134 7.70055C134 7.35083 133.706 7.06732 133.344 7.06732C132.982 7.06732 132.689 7.35083 132.689 7.70055C132.689 8.05028 132.982 8.33378 133.344 8.33378Z" fill="#664B7F" stroke="#664B7F" stroke-width="1.4835" stroke-miterlimit="10" stroke-linecap="round"/>
<path d="M0 28.5973V4.13875C0 1.92244 1.55719 0.418518 3.85199 0.418518H29.0948C31.3896 0.418518 32.9468 1.92244 32.9468 4.13875V28.5181C32.9468 30.7344 31.3896 32.2384 29.0948 32.2384H3.85199C1.55719 32.3175 0 30.8136 0 28.5973Z" fill="#664B7F"/>
<path d="M7.54004 19.5736V9.75854" stroke="white" stroke-width="2.7744" stroke-miterlimit="10" stroke-linecap="round"/>
<path d="M16.8833 27.5682V9.75854V27.5682Z" stroke="white" stroke-width="2.7744" stroke-miterlimit="10" stroke-linecap="round" stroke-linejoin="round"/>
<path d="M26.1443 27.5681V9.67938V27.5681Z" stroke="white" stroke-width="2.7744" stroke-miterlimit="10" stroke-linecap="round" stroke-linejoin="round"/>
<path d="M7.54004 9.83769C7.54004 7.30477 9.58897 5.24677 12.2116 5.24677C14.8342 5.24677 16.8832 7.30477 16.8832 9.75854" stroke="white" stroke-width="2.7744" stroke-miterlimit="10" stroke-linecap="round"/>
<path d="M16.8833 9.91685C16.8833 7.38393 18.9322 5.32593 21.5549 5.32593C24.1775 5.32593 26.2264 7.38393 26.2264 9.8377" stroke="white" stroke-width="2.7744" stroke-miterlimit="10" stroke-linecap="round"/>
<path d="M7.53994 25.6685C7.90204 25.6685 8.19559 25.385 8.19559 25.0353C8.19559 24.6855 7.90204 24.402 7.53994 24.402C7.17783 24.402 6.88428 24.6855 6.88428 25.0353C6.88428 25.385 7.17783 25.6685 7.53994 25.6685Z" fill="white" stroke="white" stroke-width="1.4835" stroke-miterlimit="10" stroke-linecap="round"/>
</svg>
