<svg width="14" height="22" viewBox="0 0 14 22" fill="none" xmlns="http://www.w3.org/2000/svg">
<path d="M4.77054 18.197H8.44946V17.2393H4.77054V18.197ZM2.01134 21.0702C1.50549 21.0702 1.0726 20.8828 0.712677 20.508C0.352142 20.1326 0.171875 19.6815 0.171875 19.1548V1.91548C0.171875 1.38872 0.352142 0.937625 0.712677 0.562192C1.0726 0.187397 1.50549 0 2.01134 0H11.2087C11.7145 0 12.1477 0.187397 12.5082 0.562192C12.8682 0.937625 13.0481 1.38872 13.0481 1.91548V19.1548C13.0481 19.6815 12.8682 20.1326 12.5082 20.508C12.1477 20.8828 11.7145 21.0702 11.2087 21.0702H2.01134ZM2.01134 14.3661H11.2087V4.78869H2.01134V14.3661Z" fill="#282828"/>
</svg>
