<svg width="17" height="30" viewBox="0 0 17 30" fill="none" xmlns="http://www.w3.org/2000/svg">
<path d="M16.4299 28.9727C16.2546 29.1538 16.0463 29.2974 15.8171 29.3955C15.5878 29.4935 15.342 29.5439 15.0937 29.5439C14.8455 29.5439 14.5997 29.4935 14.3704 29.3955C14.1411 29.2974 13.9329 29.1538 13.7576 28.9727L1.21107 16.0454C1.0711 15.9015 0.960058 15.7306 0.884294 15.5424C0.80853 15.3542 0.769531 15.1525 0.769531 14.9487C0.769531 14.745 0.80853 14.5433 0.884294 14.3551C0.960058 14.1669 1.0711 13.9959 1.21107 13.852L13.7576 0.924795C14.4974 0.16254 15.6901 0.16254 16.4299 0.924795C17.1697 1.68705 17.1697 2.91599 16.4299 3.67825L5.49891 14.9565L16.445 26.2348C17.1697 26.9815 17.1697 28.226 16.4299 28.9727Z" fill="white"/>
</svg>
