<svg width="18" height="30" viewBox="0 0 18 30" fill="none" xmlns="http://www.w3.org/2000/svg">
<path d="M1.37478 28.9727C1.55009 29.1538 1.75835 29.2974 1.98763 29.3955C2.21692 29.4935 2.46272 29.5439 2.71096 29.5439C2.9592 29.5439 3.205 29.4935 3.43428 29.3955C3.66357 29.2974 3.87183 29.1538 4.04714 28.9727L16.5936 16.0454C16.7336 15.9015 16.8446 15.7306 16.9204 15.5424C16.9962 15.3542 17.0352 15.1525 17.0352 14.9487C17.0352 14.745 16.9962 14.5433 16.9204 14.3551C16.8446 14.1669 16.7336 13.9959 16.5936 13.852L4.04714 0.924799C3.30733 0.162544 2.11458 0.162544 1.37478 0.924799C0.634975 1.68705 0.634975 2.91599 1.37478 3.67825L12.3058 14.9565L1.35968 26.2348C0.634977 26.9815 0.634975 28.226 1.37478 28.9727Z" fill="white"/>
</svg>
