<svg width="23" height="23" viewBox="0 0 23 23" fill="none" xmlns="http://www.w3.org/2000/svg">
<path d="M21.2111 22.3924L13.1611 14.6177C12.5222 15.1113 11.7875 15.5021 10.9569 15.7901C10.1264 16.078 9.24259 16.222 8.30556 16.222C5.98426 16.222 4.01989 15.4458 2.41244 13.8933C0.804148 12.34 0 10.4424 0 8.20054C0 5.95864 0.804148 4.06105 2.41244 2.50777C4.01989 0.955308 5.98426 0.179077 8.30556 0.179077C10.6269 0.179077 12.5916 0.955308 14.1999 2.50777C15.8074 4.06105 16.6111 5.95864 16.6111 8.20054C16.6111 9.10553 16.462 9.95909 16.1639 10.7612C15.8657 11.5634 15.4611 12.273 14.95 12.89L23 20.6647L21.2111 22.3924ZM8.30556 13.7539C9.90278 13.7539 11.2606 13.2142 12.3791 12.1348C13.4967 11.0545 14.0556 9.74313 14.0556 8.20054C14.0556 6.65795 13.4967 5.34654 12.3791 4.26632C11.2606 3.18692 9.90278 2.64722 8.30556 2.64722C6.70833 2.64722 5.35048 3.18692 4.232 4.26632C3.11437 5.34654 2.55556 6.65795 2.55556 8.20054C2.55556 9.74313 3.11437 11.0545 4.232 12.1348C5.35048 13.2142 6.70833 13.7539 8.30556 13.7539Z" fill="#7DAA7D"/>
</svg>
