<svg width="23" height="35" viewBox="0 0 23 32" fill="none" xmlns="http://www.w3.org/2000/svg">
<path d="M17.25 5.81818L15.2087 7.88364L12.9231 5.57091V21.8182H10.0769V5.57091L7.79125 7.88364L5.75 5.81818L11.5 0L17.25 5.81818ZM23 13.0909V29.0909C23 30.6909 21.7062 32 20.125 32H2.875C2.1125 32 1.38123 31.6935 0.842068 31.1479C0.302901 30.6024 0 29.8624 0 29.0909V13.0909C0 11.4764 1.27937 10.1818 2.875 10.1818H7.1875V13.0909H2.875V29.0909H20.125V13.0909H15.8125V10.1818H20.125C20.8875 10.1818 21.6188 10.4883 22.1579 11.0339C22.6971 11.5794 23 12.3194 23 13.0909Z" fill="#664B7F"/>
</svg>
