<svg width="35" height="29" viewBox="0 0 35 29" fill="none" xmlns="http://www.w3.org/2000/svg">
<path d="M28.8687 4.70701C28.831 4.70649 28.7933 4.70623 28.7557 4.70623C25.6381 4.70623 22.9344 5.82719 20.7395 8.03361L20.7392 8.03395C18.5425 10.2435 17.4332 12.9688 17.4332 16.1111C17.4332 17.7348 17.7585 19.2874 18.4121 20.7526C18.8066 21.6376 19.3005 22.4496 19.8928 23.1847C19.6786 23.3744 19.4504 23.5758 19.2081 23.789C18.3957 24.5037 17.6917 25.135 17.0976 25.6819L15.9098 26.7604L11.9765 23.1849C11.9759 23.1844 11.9754 23.1839 11.9748 23.1834C10.0795 21.4506 8.46252 19.9119 7.12087 18.5659L7.12041 18.5654C5.79723 17.239 4.72874 16.0133 3.90203 14.888L3.90147 14.8872C3.08394 13.7758 2.51996 12.7462 2.17498 11.7984L2.17451 11.7971C1.83135 10.8566 1.65766 9.86789 1.65766 8.82083C1.65766 6.70324 2.34106 5.03232 3.68036 3.68616L28.8687 4.70701ZM28.8687 4.70701C28.5286 4.21673 28.1144 3.74855 27.6213 3.30136C26.4323 2.22293 24.9528 1.65766 23.0682 1.65766C21.9289 1.65766 20.8542 1.89413 19.8272 2.36941L28.8687 4.70701ZM15.9091 5.92148L14.6394 4.40876C13.891 3.51707 13.0113 2.84258 11.9906 2.36922L15.9091 5.92148ZM15.9091 5.92148L17.1788 4.40876M15.9091 5.92148L17.1788 4.40876M17.1788 4.40876C17.9271 3.51726 18.8065 2.84287 19.8269 2.36952L17.1788 4.40876ZM8.75 1.65766C6.67277 1.65766 5.02225 2.33863 3.68074 3.68578L8.75 1.65766ZM8.75 1.65766C9.88895 1.65766 10.9634 1.894 11.9902 2.36903L8.75 1.65766Z" fill="white" stroke="#664B7F" stroke-width="3.31533"/>
</svg>
