<svg width="19" height="17" viewBox="0 0 19 17" fill="none" xmlns="http://www.w3.org/2000/svg">
<path fill-rule="evenodd" clip-rule="evenodd" d="M2.72584 0.946289C2.04849 0.946289 1.39888 1.21537 0.919915 1.69433C0.440953 2.17329 0.171875 2.8229 0.171875 3.50026V13.7161C0.171875 14.3935 0.440953 15.0431 0.919915 15.5221C1.39888 16.001 2.04849 16.2701 2.72584 16.2701H16.347C17.0244 16.2701 17.674 16.001 18.1529 15.5221C18.6319 15.0431 18.901 14.3935 18.901 13.7161V3.50026C18.901 2.8229 18.6319 2.17329 18.1529 1.69433C17.674 1.21537 17.0244 0.946289 16.347 0.946289H2.72584ZM16.347 2.64893H2.72584C2.50006 2.64893 2.28352 2.73863 2.12387 2.89828C1.96421 3.05793 1.87452 3.27447 1.87452 3.50026V13.7161C1.87452 13.9419 1.96421 14.1584 2.12387 14.3181C2.28352 14.4778 2.50006 14.5674 2.72584 14.5674H16.347C16.5728 14.5674 16.7893 14.4778 16.949 14.3181C17.1086 14.1584 17.1983 13.9419 17.1983 13.7161V3.50026C17.1983 3.27447 17.1086 3.05793 16.949 2.89828C16.7893 2.73863 16.5728 2.64893 16.347 2.64893Z" fill="#282828"/>
</svg>
